<svg width="32" height="32" viewBox="0 0 32 32" fill="none" xmlns="http://www.w3.org/2000/svg">
<g clip-path="url(#clip0_1_150)">
<path d="M23.9905 15.3243L22.8479 10.7119C22.7637 10.3749 22.5019 10.1113 22.1649 10.028L19.8046 9.4375L22.1649 8.847C22.4981 8.76369 22.7599 8.50456 22.846 8.17131L23.1646 6.9335C23.1847 6.8575 23.1939 6.75956 23.1939 6.68081C23.1939 6.5105 23.1482 6.343 23.0584 6.1965C21.7859 4.08531 19.8743 2.875 17.8125 2.875C16.0565 2.875 15.1739 3.4875 14.4653 3.98006C13.8464 4.41031 13.3557 4.75 12.1875 4.75C11.0193 4.75 10.5286 4.41031 9.90969 3.98006C9.20106 3.4875 8.3185 2.875 6.5625 2.875C2.94431 2.875 0 6.65981 0 11.3125C0 20.8376 5.52431 30.1531 5.75869 30.545C5.92712 30.8269 6.23294 31 6.5625 31C9.20656 31 9.80894 27.9833 10.2942 25.559C10.7556 23.2556 11.1602 21.625 12.1875 21.625C13.2148 21.625 13.6194 23.2556 14.0808 25.559C14.5661 27.9833 15.1684 31 17.8125 31C18.1421 31 18.4461 30.8269 18.6163 30.545C18.7847 30.263 22.7746 23.5476 24.0069 15.6951C24.0252 15.5716 24.0197 15.4452 23.9905 15.3243Z" fill="url(#paint0_linear_1_150)"/>
<path d="M31.2896 8.52837L25.7099 7.16512L24.3476 1.71044C24.2432 1.293 23.8678 1 23.4375 1C23.0072 1 22.6318 1.293 22.5274 1.71137L21.1688 7.16331L15.7104 8.52837C15.293 8.63181 15 9.00719 15 9.4375C15 9.86781 15.293 10.2432 15.7104 10.3466L21.1633 11.7099L22.5292 17.171C22.6355 17.5857 23.0091 17.875 23.4375 17.875H23.4412C23.8696 17.8732 24.2432 17.5811 24.3476 17.1646L25.7099 11.7099L31.2896 10.3466C31.7071 10.2432 32 9.86781 32 9.4375C32 9.00719 31.7071 8.63181 31.2896 8.52837Z" fill="#7B55EC"/>
</g>
<defs>
<linearGradient id="paint0_linear_1_150" x1="12.0087" y1="31" x2="12.0087" y2="2.875" gradientUnits="userSpaceOnUse">
<stop stop-color="#ADDCFF"/>
<stop offset="0.5028" stop-color="#EAF6FF"/>
<stop offset="1" stop-color="#EAF6FF"/>
</linearGradient>
<clipPath id="clip0_1_150">
<rect width="32" height="32" fill="white"/>
</clipPath>
</defs>
</svg>
