<svg width="1392" height="700" viewBox="0 0 1392 700" fill="none" xmlns="http://www.w3.org/2000/svg">
<path d="M0 0H1392V700H0V0Z" fill="#DBEFFA"/>
<path d="M-69 401C-51.5 401 81.5 551.5 257.5 551.5C502 551.5 633.644 3.24272 978 156.5C1251 278 1371 291 1421 206.5" stroke="#C1DEEF"/>
<path d="M-69 271C-53.5 282.5 81.5 551.5 257.5 551.5C502 551.5 673.644 63.2426 1018 216.5C1291 338 1334 318.5 1421 256.5" stroke="#C1DEEF"/>
<path d="M-69 481C-51.5 481 81.5 555.5 257.5 555.5C502 555.5 636.499 -86.2392 958 110.5C1192.5 254 1331 311 1421 246.5" stroke="#C1DEEF"/>
</svg>
