<svg width="490" height="120" viewBox="0 0 490 120" fill="none" xmlns="http://www.w3.org/2000/svg">
<rect width="490" height="120" rx="32" fill="white"/>
<path d="M127.274 53.216C126.542 53.216 125.846 53.078 125.186 52.802C124.538 52.526 123.98 52.136 123.512 51.632C123.056 51.128 122.744 50.546 122.576 49.886L124.718 49.13C124.934 49.73 125.264 50.192 125.708 50.516C126.152 50.84 126.674 51.002 127.274 51.002C127.994 51.002 128.57 50.798 129.002 50.39C129.446 49.982 129.668 49.43 129.668 48.734C129.668 48.05 129.446 47.51 129.002 47.114C128.57 46.706 127.988 46.502 127.256 46.502C126.752 46.502 126.296 46.598 125.888 46.79L125.33 45.62L128.804 41.66H123.332V39.59H131.558V41.516L128.804 44.738C129.812 44.894 130.616 45.326 131.216 46.034C131.816 46.73 132.116 47.606 132.116 48.662C132.116 49.514 131.906 50.288 131.486 50.984C131.066 51.68 130.484 52.226 129.74 52.622C129.008 53.018 128.186 53.216 127.274 53.216ZM137.99 53.216C137.282 53.216 136.604 53.084 135.956 52.82C135.308 52.556 134.756 52.178 134.3 51.686C133.844 51.194 133.532 50.618 133.364 49.958L135.488 49.202C135.692 49.79 136.016 50.24 136.46 50.552C136.904 50.852 137.414 51.002 137.99 51.002C138.674 51.002 139.232 50.786 139.664 50.354C140.096 49.91 140.312 49.34 140.312 48.644C140.312 47.948 140.096 47.384 139.664 46.952C139.232 46.52 138.674 46.304 137.99 46.304C137.51 46.304 137.084 46.412 136.712 46.628C136.34 46.832 136.07 47.12 135.902 47.492L133.904 47.042L134.966 39.59H142.274V41.66H136.712L136.298 44.738C136.838 44.39 137.54 44.216 138.404 44.216C139.268 44.216 140.03 44.408 140.69 44.792C141.362 45.164 141.878 45.686 142.238 46.358C142.598 47.03 142.778 47.792 142.778 48.644C142.778 49.508 142.568 50.288 142.148 50.984C141.74 51.68 141.17 52.226 140.438 52.622C139.706 53.018 138.89 53.216 137.99 53.216ZM146.395 39.59H149.023L151.507 49.67L154.117 39.59H156.655L159.247 49.67L161.731 39.59H164.359L160.759 53H157.951L155.377 43.352L152.803 53H149.995L146.395 39.59ZM169.333 53.216C168.349 53.216 167.473 52.988 166.705 52.532C165.949 52.076 165.355 51.458 164.923 50.678C164.503 49.898 164.293 49.034 164.293 48.086C164.293 47.126 164.503 46.262 164.923 45.494C165.355 44.714 165.937 44.102 166.669 43.658C167.413 43.214 168.241 42.992 169.153 42.992C170.137 42.992 170.989 43.208 171.709 43.64C172.429 44.06 172.975 44.636 173.347 45.368C173.731 46.1 173.923 46.904 173.923 47.78C173.923 48.188 173.881 48.518 173.797 48.77H166.741C166.813 49.49 167.089 50.066 167.569 50.498C168.049 50.93 168.643 51.146 169.351 51.146C169.879 51.146 170.329 51.038 170.701 50.822C171.085 50.594 171.391 50.282 171.619 49.886L173.527 50.822C173.227 51.542 172.699 52.124 171.943 52.568C171.187 53 170.317 53.216 169.333 53.216ZM171.403 46.97C171.343 46.37 171.109 45.884 170.701 45.512C170.293 45.128 169.777 44.936 169.153 44.936C168.553 44.936 168.043 45.116 167.623 45.476C167.203 45.824 166.927 46.322 166.795 46.97H171.403ZM179.023 53.198C178.039 53.198 177.169 52.964 176.413 52.496C175.669 52.028 175.141 51.386 174.829 50.57L176.575 49.67C176.839 50.198 177.187 50.612 177.619 50.912C178.063 51.2 178.549 51.344 179.077 51.344C179.533 51.344 179.887 51.254 180.139 51.074C180.403 50.882 180.535 50.624 180.535 50.3C180.535 50.024 180.427 49.796 180.211 49.616C179.995 49.424 179.713 49.298 179.365 49.238L177.763 48.968C176.935 48.752 176.293 48.386 175.837 47.87C175.393 47.342 175.171 46.724 175.171 46.016C175.171 45.428 175.327 44.906 175.639 44.45C175.951 43.982 176.383 43.622 176.935 43.37C177.499 43.118 178.135 42.992 178.843 42.992C179.743 42.992 180.535 43.208 181.219 43.64C181.903 44.06 182.401 44.648 182.713 45.404L180.967 46.304C180.775 45.884 180.481 45.548 180.085 45.296C179.689 45.044 179.251 44.918 178.771 44.918C178.375 44.918 178.057 45.008 177.817 45.188C177.589 45.368 177.475 45.602 177.475 45.89C177.475 46.418 177.871 46.772 178.663 46.952L180.229 47.24C181.057 47.468 181.699 47.84 182.155 48.356C182.611 48.872 182.839 49.484 182.839 50.192C182.839 50.78 182.677 51.302 182.353 51.758C182.041 52.214 181.597 52.568 181.021 52.82C180.445 53.072 179.779 53.198 179.023 53.198ZM188.701 53.108C187.597 53.108 186.739 52.808 186.127 52.208C185.527 51.596 185.227 50.738 185.227 49.634V45.314H183.535V43.208H183.715C184.195 43.208 184.567 43.082 184.831 42.83C185.095 42.578 185.227 42.212 185.227 41.732V40.976H187.585V43.208H189.835V45.314H187.585V49.508C187.585 50.528 188.137 51.038 189.241 51.038C189.433 51.038 189.643 51.02 189.871 50.984V53.018C189.487 53.078 189.097 53.108 188.701 53.108ZM194.35 39.59H198.724C200.128 39.59 201.358 39.872 202.414 40.436C203.47 41 204.286 41.792 204.862 42.812C205.438 43.82 205.726 44.978 205.726 46.286C205.726 47.582 205.438 48.74 204.862 49.76C204.286 50.78 203.464 51.578 202.396 52.154C201.34 52.718 200.116 53 198.724 53H194.35V39.59ZM198.778 50.84C199.678 50.84 200.464 50.654 201.136 50.282C201.82 49.91 202.342 49.382 202.702 48.698C203.074 48.002 203.26 47.198 203.26 46.286C203.26 45.374 203.074 44.576 202.702 43.892C202.342 43.208 201.82 42.68 201.136 42.308C200.464 41.936 199.678 41.75 198.778 41.75H196.798V50.84H198.778ZM211.76 53.216C210.776 53.216 209.9 52.988 209.132 52.532C208.376 52.076 207.782 51.458 207.35 50.678C206.93 49.898 206.72 49.034 206.72 48.086C206.72 47.126 206.93 46.262 207.35 45.494C207.782 44.714 208.364 44.102 209.096 43.658C209.84 43.214 210.668 42.992 211.58 42.992C212.564 42.992 213.416 43.208 214.136 43.64C214.856 44.06 215.402 44.636 215.774 45.368C216.158 46.1 216.35 46.904 216.35 47.78C216.35 48.188 216.308 48.518 216.224 48.77H209.168C209.24 49.49 209.516 50.066 209.996 50.498C210.476 50.93 211.07 51.146 211.778 51.146C212.306 51.146 212.756 51.038 213.128 50.822C213.512 50.594 213.818 50.282 214.046 49.886L215.954 50.822C215.654 51.542 215.126 52.124 214.37 52.568C213.614 53 212.744 53.216 211.76 53.216ZM213.83 46.97C213.77 46.37 213.536 45.884 213.128 45.512C212.72 45.128 212.204 44.936 211.58 44.936C210.98 44.936 210.47 45.116 210.05 45.476C209.63 45.824 209.354 46.322 209.222 46.97H213.83ZM217.777 43.208H219.991V44.414C220.243 43.958 220.609 43.61 221.089 43.37C221.581 43.118 222.139 42.992 222.763 42.992C223.471 42.992 224.107 43.148 224.671 43.46C225.235 43.772 225.673 44.21 225.985 44.774C226.297 45.338 226.453 45.98 226.453 46.7V53H224.095V47.258C224.095 46.622 223.909 46.112 223.537 45.728C223.177 45.344 222.703 45.152 222.115 45.152C221.527 45.152 221.047 45.344 220.675 45.728C220.315 46.112 220.135 46.622 220.135 47.258V53H217.777V43.208ZM232.551 53.108C231.447 53.108 230.589 52.808 229.977 52.208C229.377 51.596 229.077 50.738 229.077 49.634V45.314H227.385V43.208H227.565C228.045 43.208 228.417 43.082 228.681 42.83C228.945 42.578 229.077 42.212 229.077 41.732V40.976H231.435V43.208H233.685V45.314H231.435V49.508C231.435 50.528 231.987 51.038 233.091 51.038C233.283 51.038 233.493 51.02 233.721 50.984V53.018C233.337 53.078 232.947 53.108 232.551 53.108ZM238.08 53.216C237.048 53.216 236.226 52.964 235.614 52.46C235.014 51.956 234.714 51.272 234.714 50.408C234.714 49.58 234.996 48.896 235.56 48.356C236.124 47.816 236.97 47.456 238.098 47.276L241.014 46.808V46.484C241.014 46.052 240.846 45.698 240.51 45.422C240.186 45.146 239.754 45.008 239.214 45.008C238.71 45.008 238.26 45.146 237.864 45.422C237.48 45.686 237.198 46.04 237.018 46.484L235.092 45.548C235.38 44.78 235.908 44.162 236.676 43.694C237.444 43.226 238.32 42.992 239.304 42.992C240.096 42.992 240.798 43.142 241.41 43.442C242.034 43.73 242.514 44.144 242.85 44.684C243.198 45.212 243.372 45.812 243.372 46.484V53H241.14V51.956C240.372 52.796 239.352 53.216 238.08 53.216ZM237.162 50.318C237.162 50.654 237.288 50.924 237.54 51.128C237.792 51.32 238.116 51.416 238.512 51.416C239.244 51.416 239.844 51.188 240.312 50.732C240.78 50.264 241.014 49.688 241.014 49.004V48.608L238.548 49.022C238.08 49.118 237.732 49.274 237.504 49.49C237.276 49.694 237.162 49.97 237.162 50.318ZM245.191 39.374H247.549V53H245.191V39.374ZM257.192 53.216C256.136 53.216 255.218 53.018 254.438 52.622C253.67 52.226 253.07 51.728 252.638 51.128C252.206 50.516 251.93 49.88 251.81 49.22L254.114 48.608C254.294 49.34 254.654 49.91 255.194 50.318C255.734 50.726 256.412 50.93 257.228 50.93C257.852 50.93 258.356 50.774 258.74 50.462C259.136 50.15 259.334 49.778 259.334 49.346C259.334 48.95 259.19 48.608 258.902 48.32C258.626 48.02 258.248 47.822 257.768 47.726L255.752 47.33C254.684 47.126 253.844 46.664 253.232 45.944C252.62 45.224 252.314 44.348 252.314 43.316C252.314 42.596 252.518 41.936 252.926 41.336C253.346 40.724 253.898 40.244 254.582 39.896C255.278 39.548 256.016 39.374 256.796 39.374C257.792 39.374 258.638 39.542 259.334 39.878C260.03 40.214 260.57 40.64 260.954 41.156C261.35 41.66 261.614 42.194 261.746 42.758L259.46 43.478C259.208 42.83 258.866 42.368 258.434 42.092C258.002 41.804 257.456 41.66 256.796 41.66C256.424 41.66 256.088 41.738 255.788 41.894C255.5 42.05 255.272 42.254 255.104 42.506C254.948 42.746 254.87 42.992 254.87 43.244C254.87 43.64 255.002 43.988 255.266 44.288C255.53 44.576 255.896 44.762 256.364 44.846L258.272 45.26C259.436 45.512 260.336 45.992 260.972 46.7C261.608 47.396 261.926 48.23 261.926 49.202C261.926 49.898 261.734 50.552 261.35 51.164C260.966 51.776 260.414 52.274 259.694 52.658C258.986 53.03 258.152 53.216 257.192 53.216ZM267.964 53.108C266.86 53.108 266.002 52.808 265.39 52.208C264.79 51.596 264.49 50.738 264.49 49.634V45.314H262.798V43.208H262.978C263.458 43.208 263.83 43.082 264.094 42.83C264.358 42.578 264.49 42.212 264.49 41.732V40.976H266.848V43.208H269.098V45.314H266.848V49.508C266.848 50.528 267.4 51.038 268.504 51.038C268.696 51.038 268.906 51.02 269.134 50.984V53.018C268.75 53.078 268.36 53.108 267.964 53.108ZM270.576 43.208H272.79V44.576C273.03 44.048 273.372 43.67 273.816 43.442C274.26 43.214 274.8 43.1 275.436 43.1H276.012V45.188H275.166C274.494 45.188 273.954 45.398 273.546 45.818C273.138 46.238 272.934 46.814 272.934 47.546V53H270.576V43.208ZM281.592 53.216C280.608 53.216 279.732 52.988 278.964 52.532C278.208 52.076 277.614 51.458 277.182 50.678C276.762 49.898 276.552 49.034 276.552 48.086C276.552 47.126 276.762 46.262 277.182 45.494C277.614 44.714 278.196 44.102 278.928 43.658C279.672 43.214 280.5 42.992 281.412 42.992C282.396 42.992 283.248 43.208 283.968 43.64C284.688 44.06 285.234 44.636 285.606 45.368C285.99 46.1 286.182 46.904 286.182 47.78C286.182 48.188 286.14 48.518 286.056 48.77H279C279.072 49.49 279.348 50.066 279.828 50.498C280.308 50.93 280.902 51.146 281.61 51.146C282.138 51.146 282.588 51.038 282.96 50.822C283.344 50.594 283.65 50.282 283.878 49.886L285.786 50.822C285.486 51.542 284.958 52.124 284.202 52.568C283.446 53 282.576 53.216 281.592 53.216ZM283.662 46.97C283.602 46.37 283.368 45.884 282.96 45.512C282.552 45.128 282.036 44.936 281.412 44.936C280.812 44.936 280.302 45.116 279.882 45.476C279.462 45.824 279.186 46.322 279.054 46.97H283.662ZM292.254 53.216C291.27 53.216 290.394 52.988 289.626 52.532C288.87 52.076 288.276 51.458 287.844 50.678C287.424 49.898 287.214 49.034 287.214 48.086C287.214 47.126 287.424 46.262 287.844 45.494C288.276 44.714 288.858 44.102 289.59 43.658C290.334 43.214 291.162 42.992 292.074 42.992C293.058 42.992 293.91 43.208 294.63 43.64C295.35 44.06 295.896 44.636 296.268 45.368C296.652 46.1 296.844 46.904 296.844 47.78C296.844 48.188 296.802 48.518 296.718 48.77H289.662C289.734 49.49 290.01 50.066 290.49 50.498C290.97 50.93 291.564 51.146 292.272 51.146C292.8 51.146 293.25 51.038 293.622 50.822C294.006 50.594 294.312 50.282 294.54 49.886L296.448 50.822C296.148 51.542 295.62 52.124 294.864 52.568C294.108 53 293.238 53.216 292.254 53.216ZM294.324 46.97C294.264 46.37 294.03 45.884 293.622 45.512C293.214 45.128 292.698 44.936 292.074 44.936C291.474 44.936 290.964 45.116 290.544 45.476C290.124 45.824 289.848 46.322 289.716 46.97H294.324ZM302.735 53.108C301.631 53.108 300.773 52.808 300.161 52.208C299.561 51.596 299.261 50.738 299.261 49.634V45.314H297.569V43.208H297.749C298.229 43.208 298.601 43.082 298.865 42.83C299.129 42.578 299.261 42.212 299.261 41.732V40.976H301.619V43.208H303.869V45.314H301.619V49.508C301.619 50.528 302.171 51.038 303.275 51.038C303.467 51.038 303.677 51.02 303.905 50.984V53.018C303.521 53.078 303.131 53.108 302.735 53.108ZM314.684 53.216C313.424 53.216 312.284 52.916 311.264 52.316C310.244 51.716 309.44 50.888 308.852 49.832C308.276 48.776 307.988 47.594 307.988 46.286C307.988 44.978 308.276 43.796 308.852 42.74C309.44 41.684 310.238 40.862 311.246 40.274C312.266 39.674 313.412 39.374 314.684 39.374C315.608 39.374 316.454 39.536 317.222 39.86C317.99 40.172 318.638 40.598 319.166 41.138C319.706 41.666 320.096 42.254 320.336 42.902L318.14 43.928C317.876 43.232 317.438 42.674 316.826 42.254C316.214 41.822 315.5 41.606 314.684 41.606C313.856 41.606 313.118 41.804 312.47 42.2C311.822 42.584 311.318 43.13 310.958 43.838C310.61 44.546 310.436 45.362 310.436 46.286C310.436 47.21 310.61 48.032 310.958 48.752C311.318 49.46 311.822 50.012 312.47 50.408C313.118 50.792 313.856 50.984 314.684 50.984C315.5 50.984 316.214 50.774 316.826 50.354C317.438 49.922 317.876 49.358 318.14 48.662L320.336 49.688C320.096 50.336 319.706 50.93 319.166 51.47C318.638 51.998 317.99 52.424 317.222 52.748C316.454 53.06 315.608 53.216 314.684 53.216ZM324.559 53.216C323.527 53.216 322.705 52.964 322.093 52.46C321.493 51.956 321.193 51.272 321.193 50.408C321.193 49.58 321.475 48.896 322.039 48.356C322.603 47.816 323.449 47.456 324.577 47.276L327.493 46.808V46.484C327.493 46.052 327.325 45.698 326.989 45.422C326.665 45.146 326.233 45.008 325.693 45.008C325.189 45.008 324.739 45.146 324.343 45.422C323.959 45.686 323.677 46.04 323.497 46.484L321.571 45.548C321.859 44.78 322.387 44.162 323.155 43.694C323.923 43.226 324.799 42.992 325.783 42.992C326.575 42.992 327.277 43.142 327.889 43.442C328.513 43.73 328.993 44.144 329.329 44.684C329.677 45.212 329.851 45.812 329.851 46.484V53H327.619V51.956C326.851 52.796 325.831 53.216 324.559 53.216ZM323.641 50.318C323.641 50.654 323.767 50.924 324.019 51.128C324.271 51.32 324.595 51.416 324.991 51.416C325.723 51.416 326.323 51.188 326.791 50.732C327.259 50.264 327.493 49.688 327.493 49.004V48.608L325.027 49.022C324.559 49.118 324.211 49.274 323.983 49.49C323.755 49.694 323.641 49.97 323.641 50.318ZM331.671 39.374H334.029V53H331.671V39.374ZM335.846 43.208H338.204V53H335.846V43.208ZM335.666 40.508C335.666 40.076 335.786 39.74 336.026 39.5C336.266 39.26 336.596 39.14 337.016 39.14C337.448 39.14 337.784 39.26 338.024 39.5C338.264 39.74 338.384 40.076 338.384 40.508C338.384 40.928 338.264 41.258 338.024 41.498C337.796 41.738 337.46 41.858 337.016 41.858C336.596 41.858 336.266 41.738 336.026 41.498C335.786 41.258 335.666 40.928 335.666 40.508ZM341.155 45.494H339.427V43.406H341.155V43.082C341.155 41.882 341.485 40.94 342.145 40.256C342.817 39.56 343.723 39.212 344.863 39.212C345.199 39.212 345.505 39.242 345.781 39.302V41.336C345.565 41.3 345.361 41.282 345.169 41.282C344.065 41.282 343.513 41.882 343.513 43.082V43.406H345.691V45.494H343.513V53H341.155V45.494ZM351.498 53.216C350.55 53.216 349.68 52.994 348.888 52.55C348.096 52.106 347.466 51.494 346.998 50.714C346.542 49.934 346.314 49.064 346.314 48.104C346.314 47.144 346.542 46.274 346.998 45.494C347.454 44.714 348.078 44.102 348.87 43.658C349.662 43.214 350.538 42.992 351.498 42.992C352.446 42.992 353.31 43.214 354.09 43.658C354.882 44.102 355.506 44.714 355.962 45.494C356.43 46.274 356.664 47.144 356.664 48.104C356.664 49.076 356.43 49.952 355.962 50.732C355.506 51.512 354.882 52.124 354.09 52.568C353.298 53 352.434 53.216 351.498 53.216ZM348.762 48.104C348.762 48.956 349.014 49.664 349.518 50.228C350.034 50.78 350.694 51.056 351.498 51.056C352.014 51.056 352.476 50.93 352.884 50.678C353.292 50.426 353.61 50.078 353.838 49.634C354.078 49.178 354.198 48.668 354.198 48.104C354.198 47.552 354.078 47.054 353.838 46.61C353.61 46.154 353.292 45.8 352.884 45.548C352.476 45.284 352.014 45.152 351.498 45.152C350.97 45.152 350.496 45.284 350.076 45.548C349.668 45.8 349.344 46.148 349.104 46.592C348.876 47.036 348.762 47.54 348.762 48.104ZM358.092 43.208H360.306V44.576C360.546 44.048 360.888 43.67 361.332 43.442C361.776 43.214 362.316 43.1 362.952 43.1H363.528V45.188H362.682C362.01 45.188 361.47 45.398 361.062 45.818C360.654 46.238 360.45 46.814 360.45 47.546V53H358.092V43.208ZM364.465 43.208H366.679V44.414C366.931 43.958 367.297 43.61 367.777 43.37C368.269 43.118 368.827 42.992 369.451 42.992C370.159 42.992 370.795 43.148 371.359 43.46C371.923 43.772 372.361 44.21 372.673 44.774C372.985 45.338 373.141 45.98 373.141 46.7V53H370.783V47.258C370.783 46.622 370.597 46.112 370.225 45.728C369.865 45.344 369.391 45.152 368.803 45.152C368.215 45.152 367.735 45.344 367.363 45.728C367.003 46.112 366.823 46.622 366.823 47.258V53H364.465V43.208ZM374.775 43.208H377.133V53H374.775V43.208ZM374.595 40.508C374.595 40.076 374.715 39.74 374.955 39.5C375.195 39.26 375.525 39.14 375.945 39.14C376.377 39.14 376.713 39.26 376.953 39.5C377.193 39.74 377.313 40.076 377.313 40.508C377.313 40.928 377.193 41.258 376.953 41.498C376.725 41.738 376.389 41.858 375.945 41.858C375.525 41.858 375.195 41.738 374.955 41.498C374.715 41.258 374.595 40.928 374.595 40.508ZM381.92 53.216C380.888 53.216 380.066 52.964 379.454 52.46C378.854 51.956 378.554 51.272 378.554 50.408C378.554 49.58 378.836 48.896 379.4 48.356C379.964 47.816 380.81 47.456 381.938 47.276L384.854 46.808V46.484C384.854 46.052 384.686 45.698 384.35 45.422C384.026 45.146 383.594 45.008 383.054 45.008C382.55 45.008 382.1 45.146 381.704 45.422C381.32 45.686 381.038 46.04 380.858 46.484L378.932 45.548C379.22 44.78 379.748 44.162 380.516 43.694C381.284 43.226 382.16 42.992 383.144 42.992C383.936 42.992 384.638 43.142 385.25 43.442C385.874 43.73 386.354 44.144 386.69 44.684C387.038 45.212 387.212 45.812 387.212 46.484V53H384.98V51.956C384.212 52.796 383.192 53.216 381.92 53.216ZM381.002 50.318C381.002 50.654 381.128 50.924 381.38 51.128C381.632 51.32 381.956 51.416 382.352 51.416C383.084 51.416 383.684 51.188 384.152 50.732C384.62 50.264 384.854 49.688 384.854 49.004V48.608L382.388 49.022C381.92 49.118 381.572 49.274 381.344 49.49C381.116 49.694 381.002 49.97 381.002 50.318ZM125.114 69.678H122.522V67.59H127.562V81H125.114V69.678ZM135.272 81.216C134.216 81.216 133.28 80.928 132.464 80.352C131.66 79.776 131.03 78.966 130.574 77.922C130.13 76.866 129.908 75.654 129.908 74.286C129.908 72.918 130.13 71.712 130.574 70.668C131.03 69.624 131.66 68.814 132.464 68.238C133.268 67.662 134.198 67.374 135.254 67.374C136.322 67.374 137.264 67.662 138.08 68.238C138.896 68.814 139.526 69.624 139.97 70.668C140.426 71.712 140.654 72.918 140.654 74.286C140.654 75.654 140.426 76.866 139.97 77.922C139.526 78.966 138.896 79.776 138.08 80.352C137.276 80.928 136.34 81.216 135.272 81.216ZM132.356 74.286C132.356 75.738 132.614 76.884 133.13 77.724C133.646 78.564 134.36 78.984 135.272 78.984C136.184 78.984 136.898 78.57 137.414 77.742C137.942 76.902 138.206 75.75 138.206 74.286C138.206 72.834 137.942 71.694 137.414 70.866C136.898 70.026 136.178 69.606 135.254 69.606C134.342 69.606 133.628 70.02 133.112 70.848C132.608 71.676 132.356 72.822 132.356 74.286ZM147.656 81.216C146.6 81.216 145.664 80.928 144.848 80.352C144.044 79.776 143.414 78.966 142.958 77.922C142.514 76.866 142.292 75.654 142.292 74.286C142.292 72.918 142.514 71.712 142.958 70.668C143.414 69.624 144.044 68.814 144.848 68.238C145.652 67.662 146.582 67.374 147.638 67.374C148.706 67.374 149.648 67.662 150.464 68.238C151.28 68.814 151.91 69.624 152.354 70.668C152.81 71.712 153.038 72.918 153.038 74.286C153.038 75.654 152.81 76.866 152.354 77.922C151.91 78.966 151.28 79.776 150.464 80.352C149.66 80.928 148.724 81.216 147.656 81.216ZM144.74 74.286C144.74 75.738 144.998 76.884 145.514 77.724C146.03 78.564 146.744 78.984 147.656 78.984C148.568 78.984 149.282 78.57 149.798 77.742C150.326 76.902 150.59 75.75 150.59 74.286C150.59 72.834 150.326 71.694 149.798 70.866C149.282 70.026 148.562 69.606 147.638 69.606C146.726 69.606 146.012 70.02 145.496 70.848C144.992 71.676 144.74 72.822 144.74 74.286ZM160.472 78.048H154.316V75.996L160.328 67.59H162.884V75.996H164.846V78.048H162.884V81H160.472V78.048ZM160.472 75.996V70.614L156.728 75.996H160.472Z" fill="#181945"/>
<rect x="28" y="28" width="64" height="64" rx="16" fill="#583FBC" fill-opacity="0.2" stroke="url(#paint0_linear_1_427)"/>
<rect x="36" y="36" width="48" height="48" rx="16" fill="#583FBC"/>
<path d="M57.1348 68.7733V65.7156C57.1348 64.9351 57.7722 64.3023 58.5584 64.3023H61.4326C61.8102 64.3023 62.1723 64.4512 62.4393 64.7163C62.7063 64.9813 62.8563 65.3408 62.8563 65.7156V68.7733C62.8539 69.0978 62.9821 69.4099 63.2124 69.6402C63.4427 69.8705 63.7561 70 64.0829 70H66.0438C66.9596 70.0023 67.8388 69.6428 68.4872 69.0008C69.1356 68.3588 69.5 67.487 69.5 66.5778V57.8669C69.5 57.1325 69.1721 56.4358 68.6046 55.9647L61.934 50.6759C60.7737 49.7486 59.1111 49.7785 57.9854 50.747L51.467 55.9647C50.8727 56.422 50.5176 57.1206 50.5 57.8669V66.5689C50.5 68.4639 52.0474 70 53.9562 70H55.8723C56.5512 70 57.103 69.4562 57.1079 68.7822L57.1348 68.7733Z" fill="white"/>
<defs>
<linearGradient id="paint0_linear_1_427" x1="28" y1="28" x2="92" y2="92" gradientUnits="userSpaceOnUse">
<stop stop-color="#583FBC"/>
<stop offset="1" stop-color="#583FBC" stop-opacity="0"/>
</linearGradient>
</defs>
</svg>
