<svg width="98" height="98" viewBox="0 0 98 98" fill="none" xmlns="http://www.w3.org/2000/svg">
<rect x="1" y="1" width="96" height="96" rx="16" fill="white" fill-opacity="0.2" stroke="url(#paint0_linear_1_217)"/>
<rect x="13" y="13" width="72" height="72" rx="16" fill="white"/>
<g clip-path="url(#clip0_1_217)">
<path d="M63.6006 46.1243C63.0376 47.8152 62.7947 49.627 62.8955 51.4292C63.1748 56.5132 63.0647 60.3821 58.3167 63.5667C57.8513 63.8784 57.3098 64.0432 56.75 64.0432H52.6875C51.1367 64.0432 49.875 62.7815 49.875 61.2307V55.6641C49.875 55.134 49.4651 54.6609 48.9133 54.6667C48.4199 54.6765 48 55.105 48 55.6021V61.2307C48 62.7815 46.7383 64.0432 45.1875 64.0432H41.4375C40.9016 64.0432 40.3794 63.8911 39.9272 63.6033C34.9734 60.4497 34.6477 56.5786 34.9883 51.2854C35.0967 49.605 34.8713 47.8616 34.3352 46.1758C33.5195 46.8643 33 47.8933 33 49.0417V64.0432C33 64.561 33.4197 64.9807 33.9375 64.9807H64.0625C64.5803 64.9807 65 64.561 65 64.0432V49.0432C65 47.865 64.4531 46.8123 63.6006 46.1243Z" fill="#583FBC"/>
<path d="M36.8596 51.4058C36.5386 56.3951 36.8188 59.4016 40.9343 62.0218C41.2173 62.2017 41.4014 62.1682 42.1018 62.1682C41.563 59.8936 40.5002 55.0088 40.5002 51.8557C40.5002 50.337 40.9289 48.8296 41.7212 47.5196C41.7493 46.8982 41.7634 44.6597 40.6577 43.001C40.3706 42.5701 40.4868 41.9881 40.9177 41.701C41.3484 41.4136 41.9307 41.5301 42.2178 41.961C42.7314 42.7312 43.0588 43.575 43.2656 44.3772C43.7981 43.0901 44.2502 41.6722 44.2502 40.6057C44.2502 40.0882 44.6699 39.6682 45.1877 39.6682C45.7056 39.6682 46.1252 40.0882 46.1252 40.6057C46.1252 41.7227 45.7773 43.0286 45.3325 44.2422C45.8118 44.0115 46.3118 43.8247 46.8262 43.6897C47.3269 43.5589 47.8396 43.8582 47.9707 44.3589C48.102 44.8599 47.8025 45.3723 47.3018 45.5035C44.447 46.252 42.3752 48.9234 42.3752 51.8557C42.3752 54.9961 43.5605 60.2185 44.031 62.1682H45.1877C45.7056 62.1682 46.1252 61.7486 46.1252 61.2307V55.6021C46.1252 54.083 47.3608 52.8225 48.8796 52.792C50.4646 52.7635 51.7502 54.0721 51.7502 55.6641V61.2307C51.7502 61.7486 52.1699 62.1682 52.6877 62.1682H53.8445C54.3149 60.2181 55.5002 54.9937 55.5002 51.8557C55.5002 49.022 53.6934 46.521 51.0137 45.6282C50.5225 45.4644 50.2568 44.9336 50.4206 44.4422C50.5842 43.9512 51.1152 43.6853 51.6064 43.8492C51.8484 43.93 52.0842 44.0218 52.3147 44.1221C52.019 42.6558 52.4038 41.6438 52.8611 41.0003C53.1609 40.5782 53.7463 40.4793 54.1685 40.7791C54.5903 41.0789 54.6894 41.6641 54.3896 42.0862C53.8848 42.7967 54.0752 43.8238 54.4871 44.7874C54.7483 44.2576 55.1025 43.6866 55.581 43.1426C55.9231 42.7539 56.5154 42.7159 56.9043 43.0579C57.293 43.3999 57.3308 43.9922 56.9888 44.3811C56.1938 45.2849 55.8523 46.305 55.7195 46.8316C56.8252 48.3257 57.3752 50.0889 57.3752 51.8557C57.3752 55.0088 56.3125 59.8936 55.7737 62.1682C56.7744 62.1682 56.968 62.2137 57.2725 62.0093C59.1279 60.7649 60.1855 59.4219 60.7017 57.6543C61.9001 53.5486 59.8308 49.989 62.3027 44.2701C65.5146 36.8326 57.8975 30.2098 51.1506 34.2012C49.8049 34.9966 48.1331 34.9969 46.7876 34.2015C40.0803 30.2334 32.4778 36.7561 35.6001 44.1863C36.5784 46.5174 37.0139 49.0137 36.8596 51.4058Z" fill="#583FBC"/>
</g>
<defs>
<linearGradient id="paint0_linear_1_217" x1="1" y1="1" x2="97" y2="97" gradientUnits="userSpaceOnUse">
<stop stop-color="white"/>
<stop offset="1" stop-color="white" stop-opacity="0"/>
</linearGradient>
<clipPath id="clip0_1_217">
<rect width="32" height="32" fill="white" transform="translate(33 33)"/>
</clipPath>
</defs>
</svg>
