<svg width="98" height="98" viewBox="0 0 98 98" fill="none" xmlns="http://www.w3.org/2000/svg">
<rect x="1" y="1" width="96" height="96" rx="16" fill="white" fill-opacity="0.2" stroke="url(#paint0_linear_1_206)"/>
<rect x="13" y="13" width="72" height="72" rx="16" fill="white"/>
<g clip-path="url(#clip0_1_206)">
<path d="M61.2905 64.8533C62.5288 63.3338 62.4145 60.3309 62.4133 60.2994C62.4127 59.1783 62.0951 57.8566 61.8293 56.94C61.5316 55.9143 61.7253 54.8188 62.3619 53.9342C62.4253 53.8463 62.487 53.7559 62.5458 53.6668C63.4002 52.3777 63.851 50.832 63.851 49.1948V48.3005C63.851 45.7433 60.2624 45.7027 60.1087 45.7021C58.9179 45.7027 57.7064 46.0638 56.7555 46.7919C56.6458 46.8759 56.5389 46.965 56.4167 47.0301C56.3607 47.0598 56.3012 47.085 56.2481 47.1198C56.0276 47.2638 55.8452 47.5215 55.6487 47.7004C55.4075 47.9192 55.1532 48.1256 54.8841 48.3095C54.3327 48.6861 53.6869 49.0016 53.0052 49.0016C52.6898 49.0016 52.4338 48.7462 52.4338 48.4301C52.4338 48.1141 52.6898 47.8587 53.0052 47.8587C53.7378 47.8587 54.6624 47.0827 55.1995 46.5404C54.9681 46.3969 54.6698 46.2364 54.3052 46.0941C53.2194 45.6706 52.0091 45.6003 50.8765 45.8689C49.965 46.0849 48.9862 46.5295 48.6153 47.4552C48.517 47.7009 48.4604 47.9809 48.4604 48.3009V49.1957C48.4604 50.3432 48.6856 51.4918 49.1502 52.5426C49.4541 53.2295 49.9325 53.8198 50.2582 54.4952C50.6274 55.2592 50.7193 56.1215 50.4817 56.941C50.2154 57.8576 49.8982 59.1793 49.8982 60.2754C49.8965 60.3308 49.7828 63.3348 51.0206 64.8543C51.6085 62.8743 53.4343 57.5907 56.1555 57.5907C58.8767 57.5907 60.7025 62.8733 61.2905 64.8533Z" fill="#583FBC"/>
<path d="M47.848 52.3472C47.4378 51.1746 47.276 49.8928 47.2983 48.6551C47.3097 48.0174 47.3783 47.3654 47.6561 46.7917C48.1041 45.8671 49.0407 45.2653 50.0127 44.9317C52.0367 44.2374 54.4162 44.5339 56.1563 45.8025C56.246 45.7368 56.3545 45.6642 56.4734 45.5894C56.4911 45.578 56.5117 45.5665 56.5305 45.5551C56.966 45.2871 57.4322 45.0762 57.9162 44.9139C57.9574 44.9002 57.9917 44.8842 58.0339 44.8711C58.8579 43.0808 59.2923 41.0653 59.2923 39.0236V37.5715C59.2923 33.064 53.2625 33.0005 53.0059 33C49.4298 33 47.292 34.9595 47.1383 35.1051C46.7589 35.5566 44.0212 38.7144 41.5776 38.7144C41.2622 38.7144 41.0062 38.459 41.0062 38.1429C41.0062 37.8269 41.2622 37.5715 41.5776 37.5715C43.0097 37.5715 44.9297 35.8246 45.9034 34.7749C45.1097 34.1754 43.2011 33 40.4347 33C40.1787 33.0006 34.1489 33.064 34.1489 37.5715V39.0235C34.1489 41.7515 34.8866 44.3304 36.2816 46.4796C36.3782 46.6287 36.4787 46.7773 36.5833 46.9259C37.5301 48.2699 37.8193 49.9328 37.377 51.4871C36.9473 52.9974 36.4347 55.1797 36.4347 56.9998C36.4319 57.0792 36.2279 62.4998 38.5639 64.9645C38.5942 64.9959 38.6325 65.0068 38.6777 64.9959C38.7057 64.9884 38.7548 64.9679 38.772 64.9061C39.556 62.113 42.4458 52.9996 46.7206 52.9996C47.2527 52.9996 47.7812 53.1402 48.3041 53.4203C48.2893 53.3905 48.2789 53.358 48.2647 53.3283C48.1264 53.0477 48.0001 52.7609 47.8915 52.4654C47.876 52.4267 47.8617 52.3872 47.848 52.3472Z" fill="#583FBC"/>
</g>
<defs>
<linearGradient id="paint0_linear_1_206" x1="1" y1="1" x2="97" y2="97" gradientUnits="userSpaceOnUse">
<stop stop-color="white"/>
<stop offset="1" stop-color="white" stop-opacity="0"/>
</linearGradient>
<clipPath id="clip0_1_206">
<rect width="32" height="32" fill="white" transform="translate(33 33)"/>
</clipPath>
</defs>
</svg>
