<svg width="98" height="98" viewBox="0 0 98 98" fill="none" xmlns="http://www.w3.org/2000/svg">
<rect x="1" y="1" width="96" height="96" rx="16" fill="white" fill-opacity="0.2" stroke="url(#paint0_linear_1_279)"/>
<rect x="13" y="13" width="72" height="72" rx="16" fill="white"/>
<g clip-path="url(#clip0_1_279)">
<path d="M55.442 36.8128C55.0589 36.8319 54.6878 36.6138 54.5303 36.241L53.9844 34.9481C53.7833 34.4715 54.0076 33.9227 54.4852 33.722C54.9627 33.5216 55.5128 33.7449 55.7139 34.2215L56.2598 35.5145C56.461 35.991 56.2369 36.5399 55.7591 36.7403C55.6556 36.784 55.5482 36.8075 55.442 36.8128Z" fill="#583FBC"/>
<path d="M59.2987 36.1076C59.161 36.1145 59.0199 36.0913 58.8849 36.0337C58.4081 35.831 58.1861 35.2815 58.3893 34.8059L58.9437 33.507C59.1468 33.0315 59.6979 32.81 60.1747 33.0127C60.6515 33.215 60.8734 33.7649 60.6703 34.2404L60.1156 35.5393C59.9701 35.8801 59.6461 36.0903 59.2987 36.1076Z" fill="#583FBC"/>
<path d="M61.5186 39.2398C61.1323 39.2591 60.7586 39.0369 60.6035 38.6597C60.407 38.1812 60.6365 37.6345 61.116 37.4385L62.4458 36.8945C62.9253 36.6985 63.4734 36.9273 63.67 37.4058C63.8665 37.8841 63.6372 38.4307 63.1577 38.6267L61.8277 39.1707C61.7263 39.2122 61.6221 39.2344 61.5186 39.2398Z" fill="#583FBC"/>
<path d="M61.9535 43.9381C60.7845 40.8397 57.9434 38.8297 54.7152 38.8174C54.7091 38.8174 54.703 38.8174 54.6968 38.8174C53.0013 38.8174 51.7684 39.7125 50.68 40.5023C49.8531 41.1024 49.1382 41.6214 48.4036 41.6282C47.6692 41.6214 46.9542 41.1026 46.1275 40.5023C45.0391 39.7122 43.8062 38.8174 42.1106 38.8174C42.1045 38.8174 42.0984 38.8174 42.0923 38.8174C38.8641 38.8297 36.0227 40.8397 34.8538 43.9381C33.5344 47.4359 34.8811 50.2064 36.1836 52.8858C36.3814 53.2928 36.586 53.714 36.7774 54.1302C37.0791 54.7865 37.3745 55.9647 37.6873 57.212C38.4224 60.1449 39.2557 63.4691 41.1158 64.5643C41.7503 64.9379 42.4712 65.0333 43.2007 64.8402C45.1299 64.33 45.7835 62.1393 46.3599 60.2064C46.971 58.1583 47.4144 56.9107 48.4039 56.899C49.3931 56.9107 49.8367 58.1583 50.4476 60.2064C51.0242 62.1393 51.6776 64.33 53.6068 64.8402C53.8524 64.9051 54.097 64.9376 54.3377 64.9376C54.8118 64.9376 55.2711 64.8121 55.6917 64.5643C57.5518 63.4689 58.3853 60.1449 59.1204 57.212C59.4329 55.9647 59.7284 54.7865 60.0301 54.1302C60.2215 53.7137 60.4261 53.2928 60.6241 52.8856C61.9264 50.2064 63.273 47.4359 61.9535 43.9381ZM42.1138 44.4334C41.2161 44.4368 40.472 44.9913 40.1228 45.9163C39.9812 46.2916 39.6241 46.5228 39.2447 46.5228C39.1348 46.5228 39.0232 46.5035 38.9143 46.4625C38.4292 46.2804 38.1841 45.7406 38.3665 45.2567C38.9915 43.6007 40.4246 42.5679 42.1067 42.5613H42.1104C42.627 42.5613 43.0467 42.9781 43.0486 43.494C43.0506 44.0108 42.6321 44.4315 42.1138 44.4334Z" fill="#583FBC"/>
</g>
<defs>
<linearGradient id="paint0_linear_1_279" x1="1" y1="1" x2="97" y2="97" gradientUnits="userSpaceOnUse">
<stop stop-color="white"/>
<stop offset="1" stop-color="white" stop-opacity="0"/>
</linearGradient>
<clipPath id="clip0_1_279">
<rect width="32" height="32" fill="white" transform="translate(33 33)"/>
</clipPath>
</defs>
</svg>
