<svg width="98" height="98" viewBox="0 0 98 98" fill="none" xmlns="http://www.w3.org/2000/svg">
<rect x="1" y="1" width="96" height="96" rx="16" fill="white" fill-opacity="0.2" stroke="url(#paint0_linear_1_246)"/>
<rect x="13" y="13" width="72" height="72" rx="16" fill="white"/>
<path fill-rule="evenodd" clip-rule="evenodd" d="M48.547 65.5228C48.7316 65.6192 48.9379 65.6683 49.1443 65.6666C49.3507 65.665 49.5554 65.6143 49.7416 65.5163L55.6881 62.3375C57.3744 61.4386 58.6949 60.4335 59.7251 59.2633C61.9651 56.7137 63.1883 53.4597 63.1665 50.1044L63.096 39.0367C63.0893 37.7619 62.252 36.6244 61.0138 36.2109L49.9514 32.4993C49.2853 32.2738 48.5554 32.2787 47.901 32.5108L36.8806 36.3547C35.649 36.7846 34.8268 37.9302 34.8335 39.2066L34.904 50.2662C34.9258 53.6264 36.191 56.8657 38.4679 59.3891C39.5082 60.543 40.8404 61.5334 42.5451 62.4176L48.547 65.5228ZM46.9728 52.5149C47.2212 52.7536 47.5433 52.8712 47.8655 52.868C48.1876 52.8663 48.5081 52.7454 48.7531 52.5035L55.2516 46.0969C55.7399 45.6148 55.7348 44.8401 55.2415 44.3645C54.7465 43.8889 53.9495 43.8922 53.4613 44.3743L47.847 49.9082L45.5483 47.6985C45.0533 47.223 44.258 47.2279 43.7681 47.71C43.2798 48.1921 43.2848 48.9668 43.7798 49.4424L46.9728 52.5149Z" fill="#583FBC"/>
<defs>
<linearGradient id="paint0_linear_1_246" x1="1" y1="1" x2="97" y2="97" gradientUnits="userSpaceOnUse">
<stop stop-color="white"/>
<stop offset="1" stop-color="white" stop-opacity="0"/>
</linearGradient>
</defs>
</svg>
