<svg width="98" height="98" viewBox="0 0 98 98" fill="none" xmlns="http://www.w3.org/2000/svg">
<rect x="1" y="1" width="96" height="96" rx="16" fill="white" fill-opacity="0.2" stroke="url(#paint0_linear_1_938)"/>
<rect x="13" y="13" width="72" height="72" rx="16" fill="white"/>
<path d="M60.5914 36.4484C60.5358 34.9009 59.4311 33.6041 57.9051 33.2948C53.6407 32.4305 50.1941 33.6901 49.0006 34.2206C47.8072 33.6901 44.3609 32.4305 40.0961 33.2948C38.5701 33.6041 37.4655 34.9009 37.4099 36.4484C37.3165 39.0479 37.661 43.6974 40.8833 46.4479C40.6607 47.7909 40.1424 51.3535 40.1424 55.4215C40.1424 58.7175 40.7264 61.417 41.2162 63.1012C41.5414 64.2191 42.5813 64.9999 43.745 64.9999C45.1643 64.9999 46.3201 63.8886 46.3763 62.4699C46.6792 54.8166 48.1118 52.0385 49.0007 52.0385C49.8896 52.0385 51.3221 54.8166 51.6251 62.4699C51.6812 63.8886 52.837 64.9999 54.2563 64.9999C55.4201 64.9999 56.46 64.2191 56.7852 63.1012C57.2751 61.417 57.8591 58.7175 57.8591 55.4216C57.8591 51.3536 57.3408 47.7909 57.118 46.448C60.3404 43.6976 60.6848 39.0479 60.5914 36.4484ZM51.3503 46.3379L50.0246 47.6636L49.0006 46.6397L47.9767 47.6636L46.6509 46.3379L48.0632 44.9256V43.8773H47.0148L45.6026 45.2895L44.2768 43.9638L45.3008 42.9398L44.2768 41.9159L45.6026 40.5901L47.0148 42.0024H48.0632V40.954L46.6509 39.5418L47.9767 38.216L49.0006 39.24L50.0246 38.216L51.3503 39.5418L49.9381 40.954V42.0024H50.9864L52.3987 40.5901L53.7244 41.9159L52.7005 42.9398L53.7244 43.9638L52.3987 45.2895L50.9864 43.8773H49.9381V44.9256L51.3503 46.3379Z" fill="#583FBC"/>
<path d="M34.3342 50.7771H37.0007V52.652H34.3342V50.7771Z" fill="#583FBC"/>
<path d="M35.6223 47.6626L36.9479 46.337L38.3281 47.7173L37.0025 49.0428L35.6223 47.6626Z" fill="#583FBC"/>
<path d="M35.6212 55.7634L37.0014 54.3832L38.327 55.7088L36.9468 57.089L35.6212 55.7634Z" fill="#583FBC"/>
<path d="M60.9999 50.7771H63.6664V52.652H60.9999V50.7771Z" fill="#583FBC"/>
<path d="M59.6663 47.72L61.0464 46.3398L62.372 47.6654L60.9918 49.0455L59.6663 47.72Z" fill="#583FBC"/>
<path d="M59.6655 55.7117L60.9911 54.3861L62.3713 55.7663L61.0457 57.0919L59.6655 55.7117Z" fill="#583FBC"/>
<defs>
<linearGradient id="paint0_linear_1_938" x1="1" y1="1" x2="97" y2="97" gradientUnits="userSpaceOnUse">
<stop stop-color="white"/>
<stop offset="1" stop-color="white" stop-opacity="0"/>
</linearGradient>
</defs>
</svg>
