<svg width="98" height="98" viewBox="0 0 98 98" fill="none" xmlns="http://www.w3.org/2000/svg">
<rect x="1" y="1" width="96" height="96" rx="16" fill="white" fill-opacity="0.2" stroke="url(#paint0_linear_1_953)"/>
<rect x="13" y="13" width="72" height="72" rx="16" fill="white"/>
<g clip-path="url(#clip0_1_953)">
<path d="M63.038 38.6488C62.1601 36.1004 60.3675 34.2254 58.1197 33.5045C53.8514 32.1359 50.3414 33.8946 48.9998 34.7378C47.6581 33.8945 44.1479 32.1358 39.8797 33.5045C37.6309 34.2257 35.8378 36.1018 34.9603 38.6518C33.8064 42.005 34.3874 45.8727 36.5147 48.9979C37.9354 51.0851 38.863 53.4406 39.1975 55.8097C39.2168 55.9464 39.2356 56.086 39.254 56.2288C39.5761 58.7272 40.0504 60.7325 40.6639 62.1889C41.399 63.9342 42.3475 64.8767 43.4832 64.9904C44.6869 65.1106 45.6861 64.1096 46.4539 62.0149C46.9908 60.5502 47.4141 58.5874 47.6457 56.4882C47.7752 55.3147 48.0779 54.3646 48.5213 53.7407C48.6794 53.5182 48.9086 53.4942 48.9998 53.4942C49.0909 53.4942 49.3201 53.5182 49.4782 53.7407C49.9215 54.3646 50.2242 55.3147 50.3537 56.4882C50.5854 58.5874 51.0087 60.5502 51.5456 62.0149C52.2721 63.9973 53.2061 65 54.3242 65C54.3876 65 54.4517 64.9968 54.5162 64.9904C55.6519 64.8767 56.6004 63.9342 57.3355 62.1889C57.949 60.7325 58.4234 58.7272 58.7454 56.2287C58.7632 56.0912 58.7813 55.9567 58.7999 55.8247C59.1337 53.4516 60.0637 51.0886 61.4893 48.9912C63.6134 45.8661 64.1923 41.9998 63.038 38.6488Z" fill="#583FBC"/>
</g>
<defs>
<linearGradient id="paint0_linear_1_953" x1="1" y1="1" x2="97" y2="97" gradientUnits="userSpaceOnUse">
<stop stop-color="white"/>
<stop offset="1" stop-color="white" stop-opacity="0"/>
</linearGradient>
<clipPath id="clip0_1_953">
<rect width="32" height="32" fill="white" transform="translate(33 33)"/>
</clipPath>
</defs>
</svg>
