<svg width="98" height="98" viewBox="0 0 98 98" fill="none" xmlns="http://www.w3.org/2000/svg">
<rect x="1" y="1" width="96" height="96" rx="16" fill="white" fill-opacity="0.2" stroke="url(#paint0_linear_1_929)"/>
<rect x="13" y="13" width="72" height="72" rx="16" fill="white"/>
<path d="M61.6706 51.9198C61.1489 54.1812 60.0315 56.2618 58.4342 57.9455C56.8369 59.6291 54.818 60.8545 52.5872 61.4944C50.3563 62.1344 47.9949 62.1654 45.748 61.5845C43.5011 61.0035 41.4506 59.8317 39.8096 58.1906C38.1685 56.5496 36.9967 54.4992 36.4157 52.2523C35.8347 50.0054 35.8658 47.6439 36.5056 45.4131C37.1455 43.1822 38.3709 41.1633 40.0546 39.566C41.7382 37.9687 43.8188 36.8512 46.0802 36.3296C46.2453 36.2917 46.4173 36.2963 46.5801 36.3431C46.7429 36.3899 46.8912 36.4772 47.011 36.597C47.1308 36.7168 47.2182 36.865 47.265 37.0278C47.3118 37.1906 47.3165 37.3626 47.2786 37.5277C46.8617 39.3455 46.9133 41.2395 47.4286 43.0318C47.9439 44.8242 48.9061 46.4564 50.2249 47.7751C51.5436 49.0939 53.1757 50.0561 54.9681 50.5714C56.7605 51.0867 58.6544 51.1384 60.4722 50.7214C60.6373 50.6835 60.8094 50.6882 60.9722 50.735C61.135 50.7818 61.2832 50.8692 61.403 50.989C61.5228 51.1088 61.6102 51.2571 61.657 51.4199C61.7038 51.5827 61.7085 51.7547 61.6706 51.9198Z" fill="#583FBC"/>
<defs>
<linearGradient id="paint0_linear_1_929" x1="1" y1="1" x2="97" y2="97" gradientUnits="userSpaceOnUse">
<stop stop-color="white"/>
<stop offset="1" stop-color="white" stop-opacity="0"/>
</linearGradient>
</defs>
</svg>
