<svg width="98" height="98" viewBox="0 0 98 98" fill="none" xmlns="http://www.w3.org/2000/svg">
<rect x="1" y="1" width="96" height="96" rx="16" fill="white" fill-opacity="0.2" stroke="url(#paint0_linear_1_963)"/>
<rect x="13" y="13" width="72" height="72" rx="16" fill="white"/>
<g clip-path="url(#clip0_1_963)">
<path d="M52.437 51.6667C51.3184 51.6667 50.3517 50.9147 50.137 49.8774L49.389 45.6347C49.3717 45.5521 49.2144 45.4307 48.9997 45.4307C48.785 45.4307 48.6277 45.5521 48.6037 45.6654L47.8664 49.8494C47.6477 50.9147 46.681 51.6667 45.5624 51.6667C44.3677 51.6667 43.3664 50.8201 43.233 49.6987L42.945 47.2627C42.9277 47.1374 42.797 46.4427 42.105 43.2454C41.8144 41.9014 41.6664 40.5214 41.6664 39.1427C41.6664 37.2267 43.221 35.6667 45.1317 35.6667C45.7704 35.6667 46.3997 35.8414 46.949 36.1721C48.2144 36.9347 49.785 36.9347 51.0477 36.1734C51.5997 35.8414 52.229 35.6667 52.8677 35.6667C54.7784 35.6667 56.333 37.2267 56.333 39.1427C56.333 40.5214 56.185 41.9014 55.8944 43.2467C55.2024 46.4414 55.0717 47.1361 55.053 47.2667L54.7664 49.6987C54.6344 50.8201 53.633 51.6667 52.437 51.6667Z" fill="#583FBC"/>
<path d="M61.3333 62.3333H36.6667C34.644 62.3333 33 60.6893 33 58.6667V47.3333C33 46.0467 34.0467 45 35.3333 45H36.692C38.44 45 39.9533 46.248 40.292 47.968C40.74 50.2373 40.992 51.8427 40.992 51.8427C41.2493 54.0387 43.136 55.6667 45.3813 55.6667C46.468 55.6667 47.5147 55.2707 48.3267 54.552C48.7027 54.2187 49.2707 54.2173 49.6493 54.5507C50.4693 55.2707 51.5227 55.6667 52.6187 55.6667C54.8653 55.6667 56.7507 54.0413 57.0027 51.8853C57.008 51.8507 57.2507 50.2747 57.7067 47.968C58.0467 46.248 59.56 45 61.3053 45H62.6667C63.9533 45 65 46.0467 65 47.3333V58.6667C65 60.6893 63.356 62.3333 61.3333 62.3333Z" fill="#583FBC"/>
</g>
<defs>
<linearGradient id="paint0_linear_1_963" x1="1" y1="1" x2="97" y2="97" gradientUnits="userSpaceOnUse">
<stop stop-color="white"/>
<stop offset="1" stop-color="white" stop-opacity="0"/>
</linearGradient>
<clipPath id="clip0_1_963">
<rect width="32" height="32" fill="white" transform="translate(33 33)"/>
</clipPath>
</defs>
</svg>
